<svg width="180" height="180" fill="none" xmlns="http://www.w3.org/2000/svg"><g clip-path="url(#a)"><path fill="#fff" d="M0 0h180v180H0z"/><path d="M171.471-45.639c6.36-3.792 14.833-7.245 21.825-8.905 6.274-1.485 15.766-2.171 21.09-1.53 5.316.627 14.087 3.053 19.511 5.355 5.409 2.31 13.737 7.81 18.473 12.207 4.735 4.397 10.999 11.127 13.917 14.936 2.903 3.817 6.92 10.706 12.522 23.73l-92.884 53.627 3.681 4.368c2.013 2.413 7.169 6.847 11.465 9.86 4.296 3.012 11.687 6.196 16.42 7.059 4.741.878 12.952.532 18.237-.762 7.234-1.76 12.67-4.419 21.813-10.656 6.708-4.572 13.503-9.514 15.119-11.006 2.872-2.637 3.111-2.395 10.29 10.039 6.92 11.985 7.183 12.892 4.405 15.414-1.625 1.478-9.093 6.809-16.626 11.857-8.754 5.873-17.295 10.385-23.731 12.522-5.523 1.851-15.187 3.794-21.471 4.326-6.276.548-16.908-.185-23.637-1.634-9.248-1.971-15.459-4.877-25.545-11.898-7.344-5.109-15.796-10.995-18.82-13.084-3.033-2.105-10.264-5.08-16.107-6.62-6.34-1.674-16.133-2.272-24.315-1.463-7.535.754-21.427 3.92-30.889 7.046-9.452 3.14-20.992 5.988-25.638 6.314-4.653.349-11.11-.318-14.334-1.473-3.238-1.147-7.566-4.041-9.623-6.428-2.058-2.388-4.429-6.632-5.272-9.441-.843-2.81-.458-8.925.873-13.608 1.681-5.945 4.46-10.405 9.24-14.823 3.76-3.488 9.275-7.152 12.259-8.176 2.993-1.009 8.458-2.026 12.18-2.258 3.713-.245 11.608 1.148 17.528 3.064a2564.811 2564.811 0 0 0 19.579 6.234c4.841 1.5 11.505 2.386 14.818 1.931 5.321-.714 6.579-1.58 10.727-7.37 2.588-3.613 5.356-10.824 6.159-16.042.788-5.209 2.817-14.53 4.514-20.723 1.683-6.185 5.075-14.356 7.552-18.163 2.467-3.822 6.693-9.338 9.383-12.29 2.691-2.951 9.579-8.146 15.312-11.536ZM-204.147 87.41c7.785-4.574 17.084-9.124 27.12-11.843l14.704 25.469-5.518 1.688c-3.036.934-10.228 4.426-15.978 7.786-7.885 4.612-11.102 7.448-13.072 11.543-1.448 2.993-2.423 8.709-2.169 12.677.261 4.224 2.826 12.091 11.918 30.572l82.398-47.572 28.268 48.099c26.74 45.485 28.598 48.288 34.383 51.56 3.362 1.914 9.311 3.673 13.239 3.902 5.305.333 9.206-.801 15.322-4.392 5.651-3.323 9.412-6.912 12.125-11.555 2.319-3.975 3.799-9.924 3.6-14.523-.318-7.367-1.836-10.447-54.503-103.364l32.959-19.029 11.85 19.626c10.548 17.44 12.812 20.288 20.442 25.65 5.349 3.764 12.264 6.643 18.354 7.641 5.385.886 15.22 1.28 21.853.866 6.641-.398 21.484-3.474 33-6.847 14.122-4.118 23.62-5.867 29.169-5.355 4.521.426 10.831 2.396 14.028 4.405 3.198 2.009 7.276 6.167 9.043 9.261 1.781 3.086 3.392 8.229 3.591 11.41.218 3.769-1.633 8.693-5.347 14.093-3.726 5.447-8.27 9.789-13.184 12.626-5.019 2.898-10.681 4.509-17.161 4.874-5.314.312-12.462-.756-15.874-2.341-3.397-1.594-10.381-4.973-15.501-7.51-5.135-2.528-11.952-4.646-15.17-4.685-3.195-.033-8.752 1.379-12.336 3.128-5.125 2.54-6.87 4.466-8.333 9.266-1.018 3.323-1.56 11.068-1.21 17.177.337 6.118-.803 16.044-2.542 22.062-1.748 6.003-5.592 14.535-8.544 18.936-2.953 4.401-9.312 11.308-14.124 15.325-6.671 5.569-11.692 8.428-21.042 11.989-6.752 2.559-16.588 5.002-21.84 5.418-5.254.416-14.195-.434-19.847-1.885-5.675-1.458-14.208-5.34-18.962-8.628-8.506-5.875-9.049-6.642-51.366-78.209l-49.439 28.544 62.739 108.596-32.24 18.614-39.775-67.922c-21.874-37.369-43.457-75.684-47.955-85.172-5.149-10.89-8.524-20.367-9.152-25.677-.527-4.65-.023-12.911 1.152-18.383 1.167-5.488 4.009-12.882 6.306-16.445 2.297-3.564 5.597-7.985 7.325-9.802 1.719-1.831 9.519-7.074 17.296-11.663Z" fill="#000"/></g><defs><clipPath id="a"><path fill="#fff" d="M0 0h180v180H0z"/></clipPath></defs></svg>